<?xml version="1.0" standalone="no"?>
<!DOCTYPE svg PUBLIC "-//W3C//DTD SVG 20010904//EN"
 "http://www.w3.org/TR/2001/REC-SVG-20010904/DTD/svg10.dtd">
<svg version="1.0" xmlns="http://www.w3.org/2000/svg"
 width="150.000000pt" height="59.000000pt" viewBox="0 0 150.000000 59.000000"
 preserveAspectRatio="xMidYMid meet">

<g transform="translate(0.000000,59.000000) scale(0.100000,-0.100000)"
fill="#000000" stroke="none">
<path d="M62 384 c-85 -44 -81 -168 6 -210 44 -21 106 -13 138 17 22 20 22 23
7 35 -14 10 -21 9 -37 -2 -30 -21 -90 -18 -111 6 -44 49 -10 120 58 120 22 0
48 -6 56 -14 13 -12 19 -12 33 -2 16 12 16 14 -7 36 -32 30 -99 36 -143 14z"/>
<path d="M520 280 c0 -103 1 -110 20 -110 17 0 20 7 20 40 0 39 1 40 35 40 30
0 37 -5 57 -40 13 -22 31 -40 41 -40 21 0 21 1 1 44 -16 33 -16 35 5 61 26 35
27 55 0 89 -19 24 -26 26 -100 26 l-79 0 0 -110z m150 55 c21 -26 -5 -45 -61
-45 -48 0 -49 1 -49 30 0 29 1 30 49 30 31 0 53 -5 61 -15z"/>
<path d="M750 280 l0 -110 95 0 c88 0 95 1 95 20 0 18 -7 20 -75 20 -73 0 -75
1 -75 25 0 24 2 25 70 25 63 0 70 2 70 20 0 18 -7 20 -70 20 -68 0 -70 1 -70
25 0 24 2 25 75 25 68 0 75 2 75 20 0 19 -7 20 -95 20 l-95 0 0 -110z"/>
</g>
</svg>
